<svg width="30" height="30" viewBox="0 0 30 30" fill="none" xmlns="http://www.w3.org/2000/svg">
<g clip-path="url(#clip0_7_27)">
<path d="M30 15.0919C30 6.7557 23.2838 -0.00180054 15 -0.00180054C6.71253 7.4463e-05 -0.00372314 6.7557 -0.00372314 15.0938C-0.00372314 22.6257 5.48253 28.8694 12.6525 30.0019V19.4551H8.84628V15.0938H12.6563V11.7657C12.6563 7.98382 14.8969 5.89507 18.3225 5.89507C19.965 5.89507 21.6807 6.18945 21.6807 6.18945V9.90195H19.7888C17.9269 9.90195 17.3457 11.0663 17.3457 12.2607V15.0919H21.5044L20.8407 19.4532H17.3438V30.0001C24.5138 28.8676 30 22.6238 30 15.0919Z" fill="black"/>
</g>
<defs>
<clipPath id="clip0_7_27">
<rect width="30" height="30" fill="white"/>
</clipPath>
</defs>
</svg>
